<svg id="Calendar-Active" xmlns="http://www.w3.org/2000/svg" width="19.238" height="15.948" viewBox="0 0 19.238 15.948">
  <rect id="Rectangle_557" data-name="Rectangle 557" width="14.043" height="14.043" transform="translate(0 0)" fill="none"/>
  <path id="Path_149" data-name="Path 149" d="M2.4,4.984v8.971H16.833V4.984Zm13.226-2.99h2.4c.721,0,1.2.4,1.2,1V14.951c0,.6-.481,1-1.2,1H1.2c-.721,0-1.2-.4-1.2-1V2.99c0-.6.481-1,1.2-1h2.4V1c0-.6.481-1,1.2-1s1.2.4,1.2,1v1h7.214V1c0-.6.481-1,1.2-1s1.2.4,1.2,1Zm-1.2,9.967h-2.4V9.967h2.4Zm-3.607,0h-2.4V9.967h2.4Zm3.607-2.99h-2.4V6.977h2.4Zm-3.607,0h-2.4V6.977h2.4Zm-3.607,2.99H4.81V9.967h2.4Z" transform="translate(0 0)" fill-rule="evenodd"/>
</svg>
