<svg id="Calendar" xmlns="http://www.w3.org/2000/svg" width="19.438" height="19" viewBox="0 0 19.438 19">
  <rect id="Rectangle_557" data-name="Rectangle 557" width="14.912" height="14.912" fill="none"/>
  <path id="Path_149" data-name="Path 149" d="M2.43,5v9H17.008V5ZM15.793,2h2.43c.729,0,1.215.4,1.215,1V15c0,.6-.486,1-1.215,1H1.215C.486,16,0,15.6,0,15V3c0-.6.486-1,1.215-1h2.43V1c0-.6.486-1,1.215-1S6.074.4,6.074,1V2h7.289V1c0-.6.486-1,1.215-1s1.215.4,1.215,1ZM14.578,12h-2.43V10h2.43Zm-3.644,0H8.5V10h2.43Zm3.644-3h-2.43V7h2.43ZM10.933,9H8.5V7h2.43ZM7.289,12H4.859V10h2.43Z" transform="translate(0 3)" fill="#54d1ff" fill-rule="evenodd"/>
</svg>
