<?xml version="1.0" encoding="UTF-8" standalone="no"?>
<svg
   xmlns:dc="http://purl.org/dc/elements/1.1/"
   xmlns:cc="http://creativecommons.org/ns#"
   xmlns:rdf="http://www.w3.org/1999/02/22-rdf-syntax-ns#"
   xmlns:svg="http://www.w3.org/2000/svg"
   xmlns="http://www.w3.org/2000/svg"
   xmlns:sodipodi="http://sodipodi.sourceforge.net/DTD/sodipodi-0.dtd"
   xmlns:inkscape="http://www.inkscape.org/namespaces/inkscape"
   height="512pt"
   viewBox="0 -44 512.00002 512"
   width="512pt"
   version="1.1"
   id="svg202"
   sodipodi:docname="coding.svg"
   inkscape:version="0.92.4 (5da689c313, 2019-01-14)">
  <metadata
     id="metadata208">
    <rdf:RDF>
      <cc:Work
         rdf:about="">
        <dc:format>image/svg+xml</dc:format>
        <dc:type
           rdf:resource="http://purl.org/dc/dcmitype/StillImage" />
      </cc:Work>
    </rdf:RDF>
  </metadata>
  <defs
     id="defs206" />
  <sodipodi:namedview
     pagecolor="#ffffff"
     bordercolor="#666666"
     borderopacity="1"
     objecttolerance="10"
     gridtolerance="10"
     guidetolerance="10"
     inkscape:pageopacity="0"
     inkscape:pageshadow="2"
     inkscape:window-width="1920"
     inkscape:window-height="1017"
     id="namedview204"
     showgrid="false"
     inkscape:zoom="1.2421875"
     inkscape:cx="295.04403"
     inkscape:cy="341.33333"
     inkscape:window-x="1912"
     inkscape:window-y="-8"
     inkscape:window-maximized="1"
     inkscape:current-layer="svg202" />
  <path
     d="m205.484375 355.09375h101.03125v55.863281h-101.03125zm0 0"
     fill="#2c6a9b"
     id="path110" />
  <path
     d="m205.488281 355.09375h101.023438v17.386719h-101.023438zm0 0"
     fill="#1a5a84"
     id="path112" />
  <path
     d="m354.214844 424.726562h-196.429688c-5.144531 0-9.316406-4.171874-9.316406-9.316406 0-5.144531 4.171875-9.3125 9.316406-9.3125h196.429688c5.144531 0 9.3125 4.167969 9.3125 9.3125 0 5.144532-4.167969 9.316406-9.3125 9.316406zm0 0"
     fill="#dceeef"
     id="path114" />
  <path
     d="m512 15.761719v331.792969c0 5.808593-4.707031 10.507812-10.519531 10.507812h-490.960938c-5.8125 0-10.519531-4.699219-10.519531-10.507812v-331.792969c0-8.703125 7.066406-15.761719 15.773438-15.761719h480.453124c8.714844 0 15.773438 7.058594 15.773438 15.761719zm0 0"
     fill="#dceeef"
     id="path116" />
  <path
     d="m512 15.761719v331.789062c0 5.816407-4.707031 10.511719-10.511719 10.511719h-22.875c5.804688 0 10.511719-4.695312 10.511719-10.511719v-331.789062c0-8.699219-7.058594-15.75781275-15.769531-15.75781275h22.875c8.710937 0 15.769531 7.05859375 15.769531 15.75781275zm0 0"
     fill="#bcdde2"
     id="path118" />
  <path
     d="m489.125 77.8125h22.875v134.550781h-22.875zm0 0"
     fill="#009af2"
     id="path122"
     style="fill:#8bc1c6;fill-opacity:1" />
  <path
     d="m282.320312 0v358.0625h-271.800781c-5.8125 0-10.519531-4.699219-10.519531-10.507812v-331.792969c0-8.703125 7.066406-15.761719 15.773438-15.761719zm0 0"
     fill="#4c94c3"
     id="path126"
     style="fill:#4ce0d2;fill-opacity:0.78431374" />
  <path
     d="m512 15.761719v22.5h-512v-22.5c0-8.703125 7.066406-15.761719 15.773438-15.761719h480.453124c8.714844 0 15.773438 7.058594 15.773438 15.761719zm0 0"
     fill="#8bc1c6"
     id="path128" />
  <path
     d="m512 307.648438v39.902343c0 5.816407-4.707031 10.511719-10.511719 10.511719h-490.976562c-5.804688 0-10.511719-4.695312-10.511719-10.511719v-39.902343zm0 0"
     fill="#3b7ca8"
     id="path130"
     style="fill:#8bc1c6;fill-opacity:1" />
  <path
     d="m512 307.648438v39.902343c0 5.816407-4.707031 10.511719-10.511719 10.511719h-22.875c5.804688 0 10.511719-4.695312 10.511719-10.511719v-39.902343zm0 0"
     fill="#2c6a9b"
     id="path132"
     style="fill:#8bc1c6;fill-opacity:1" />
  <path
     d="m49.511719 92.003906h-.472657c-4.265624 0-7.722656-3.460937-7.722656-7.726562s3.457032-7.726563 7.722656-7.726563h.472657c4.269531 0 7.726562 3.460938 7.726562 7.726563s-3.457031 7.726562-7.726562 7.726562zm0 0"
     fill="#ff8980"
     id="path134" />
  <path
     d="m102.503906 92.003906h-28.847656c-4.265625 0-7.722656-3.460937-7.722656-7.726562s3.457031-7.726563 7.722656-7.726563h28.847656c4.265625 0 7.726563 3.460938 7.726563 7.726563s-3.460938 7.726562-7.726563 7.726562zm0 0"
     fill="#ff8980"
     id="path136" />
  <g
     fill="#8dffa2"
     id="g152">
    <path
       d="m49.511719 117.484375h-.472657c-4.265624 0-7.722656-3.457031-7.722656-7.726563 0-4.265624 3.457032-7.726562 7.722656-7.726562h.472657c4.269531 0 7.726562 3.460938 7.726562 7.726562 0 4.269532-3.457031 7.726563-7.726562 7.726563zm0 0"
       id="path138" />
    <path
       d="m138.214844 117.484375h-64.558594c-4.265625 0-7.722656-3.457031-7.722656-7.726563 0-4.265624 3.457031-7.726562 7.722656-7.726562h64.558594c4.269531 0 7.726562 3.460938 7.726562 7.726562 0 4.269532-3.457031 7.726563-7.726562 7.726563zm0 0"
       id="path140" />
    <path
       d="m49.511719 142.96875h-.472657c-4.265624 0-7.722656-3.460938-7.722656-7.726562 0-4.269532 3.457032-7.726563 7.722656-7.726563h.472657c4.269531 0 7.726562 3.457031 7.726562 7.726563 0 4.265624-3.457031 7.726562-7.726562 7.726562zm0 0"
       id="path142" />
    <path
       d="m120.359375 142.96875h-46.703125c-4.265625 0-7.722656-3.460938-7.722656-7.726562 0-4.269532 3.457031-7.726563 7.722656-7.726563h46.703125c4.269531 0 7.726563 3.457031 7.726563 7.726563 0 4.265624-3.457032 7.726562-7.726563 7.726562zm0 0"
       id="path144" />
    <path
       d="m49.511719 168.449219h-.472657c-4.265624 0-7.722656-3.460938-7.722656-7.726563s3.457032-7.726562 7.722656-7.726562h.472657c4.269531 0 7.726562 3.460937 7.726562 7.726562s-3.457031 7.726563-7.726562 7.726563zm0 0"
       id="path146" />
    <path
       d="m191.785156 168.449219h-74.859375c-4.269531 0-7.726562-3.460938-7.726562-7.726563s3.460937-7.726562 7.726562-7.726562h74.859375c4.269532 0 7.726563 3.460937 7.726563 7.726562s-3.457031 7.726563-7.726563 7.726563zm0 0"
       id="path148" />
    <path
       d="m95.636719 168.449219h-21.980469c-4.265625 0-7.722656-3.460938-7.722656-7.726563s3.457031-7.726562 7.722656-7.726562h21.980469c4.265625 0 7.722656 3.460937 7.722656 7.726562s-3.457031 7.726563-7.722656 7.726563zm0 0"
       id="path150" />
    <path
       style="stroke-width:0.99999994;fill:#4ce0d2;fill-opacity:1"
       inkscape:connector-curvature="0"
       d="m 380.33564,114.66996 h -0.47266 c -4.26562,0 -7.72265,-3.45704 -7.72265,-7.72657 0,-4.26562 3.45703,-7.726558 7.72265,-7.726558 h 0.47266 c 4.26953,0 7.72656,3.460938 7.72656,7.726558 0,4.26953 -3.45703,7.72657 -7.72656,7.72657 z m 0,0"
       id="path138-0" />
    <path
       style="stroke-width:0.99999994;fill:#4ce0d2;fill-opacity:1"
       inkscape:connector-curvature="0"
       d="m 469.03876,114.66996 h -64.55859 c -4.26563,0 -7.72266,-3.45704 -7.72266,-7.72657 0,-4.26562 3.45703,-7.726558 7.72266,-7.726558 h 64.55859 c 4.26953,0 7.72657,3.460938 7.72657,7.726558 0,4.26953 -3.45704,7.72657 -7.72657,7.72657 z m 0,0"
       id="path140-6" />
  </g>
  <path
     d="m49.511719 193.929688h-.472657c-4.265624 0-7.722656-3.457032-7.722656-7.726563 0-4.265625 3.457032-7.726563 7.722656-7.726563h.472657c4.269531 0 7.726562 3.460938 7.726562 7.726563 0 4.269531-3.457031 7.726563-7.726562 7.726563zm0 0"
     fill="#8df4ff"
     id="path154" />
  <path
     d="m138.214844 193.929688h-64.558594c-4.265625 0-7.722656-3.457032-7.722656-7.726563 0-4.265625 3.457031-7.726563 7.722656-7.726563h64.558594c4.269531 0 7.726562 3.460938 7.726562 7.726563 0 4.269531-3.457031 7.726563-7.726562 7.726563zm0 0"
     fill="#8df4ff"
     id="path156" />
  <path
     d="m49.511719 219.410156h-.472657c-4.265624 0-7.722656-3.457031-7.722656-7.722656 0-4.269531 3.457032-7.726562 7.722656-7.726562h.472657c4.269531 0 7.726562 3.457031 7.726562 7.726562 0 4.265625-3.457031 7.722656-7.726562 7.722656zm0 0"
     fill="#8df4ff"
     id="path158" />
  <path
     d="m138.214844 219.410156h-64.558594c-4.265625 0-7.722656-3.457031-7.722656-7.722656 0-4.269531 3.457031-7.726562 7.722656-7.726562h64.558594c4.269531 0 7.726562 3.457031 7.726562 7.726562 0 4.265625-3.457031 7.722656-7.726562 7.722656zm0 0"
     fill="#8df4ff"
     id="path160" />
  <path
     d="m49.511719 244.894531h-.472657c-4.265624 0-7.722656-3.460937-7.722656-7.726562s3.457032-7.726563 7.722656-7.726563h.472657c4.269531 0 7.726562 3.460938 7.726562 7.726563s-3.457031 7.726562-7.726562 7.726562zm0 0"
     fill="#ff8980"
     id="path162" />
  <path
     d="m197.519531 244.894531h-24.964843c-4.269532 0-7.726563-3.460937-7.726563-7.726562s3.460937-7.726563 7.726563-7.726563h24.964843c4.269531 0 7.726563 3.460938 7.726563 7.726563s-3.457032 7.726562-7.726563 7.726562zm0 0"
     fill="#ff8980"
     id="path164" />
  <path
     d="m149.890625 244.894531h-76.234375c-4.265625 0-7.722656-3.460937-7.722656-7.726562s3.457031-7.726563 7.722656-7.726563h76.234375c4.269531 0 7.726563 3.460938 7.726563 7.726563s-3.457032 7.726562-7.726563 7.726562zm0 0"
     fill="#ff8980"
     id="path166" />
  <path
     d="m49.511719 270.375h-.472657c-4.265624 0-7.722656-3.457031-7.722656-7.726562 0-4.265626 3.457032-7.722657 7.722656-7.722657h.472657c4.269531 0 7.726562 3.457031 7.726562 7.722657 0 4.269531-3.457031 7.726562-7.726562 7.726562zm0 0"
     fill="#ff8980"
     id="path168" />
  <path
     d="m138.214844 270.375h-64.558594c-4.265625 0-7.722656-3.457031-7.722656-7.726562 0-4.265626 3.457031-7.722657 7.722656-7.722657h64.558594c4.269531 0 7.726562 3.457031 7.726562 7.722657 0 4.269531-3.457031 7.726562-7.726562 7.726562zm0 0"
     fill="#ff8980"
     id="path170" />
  <path
     d="m162.832031 270.375h-.472656c-4.265625 0-7.722656-3.457031-7.722656-7.726562 0-4.265626 3.457031-7.722657 7.722656-7.722657h.472656c4.269531 0 7.726563 3.457031 7.726563 7.722657 0 4.269531-3.457032 7.726562-7.726563 7.726562zm0 0"
     fill="#ff8980"
     id="path172" />
  <path
     d="m127.011719 92.003906h-.472657c-4.265624 0-7.726562-3.460937-7.726562-7.726562s3.460938-7.726563 7.726562-7.726563h.472657c4.269531 0 7.726562 3.460938 7.726562 7.726563s-3.457031 7.726562-7.726562 7.726562zm0 0"
     fill="#ff8980"
     id="path174" />
  <path
     d="m141.394531 142.96875h-.46875c-4.269531 0-7.726562-3.460938-7.726562-7.726562 0-4.269532 3.457031-7.726563 7.726562-7.726563h.46875c4.269531 0 7.726563 3.457031 7.726563 7.726563 0 4.265624-3.457032 7.726562-7.726563 7.726562zm0 0"
     fill="#8dffa2"
     id="path176" />
  <path
     d="m183.484375 270.375h-.472656c-4.269531 0-7.726563-3.457031-7.726563-7.726562 0-4.265626 3.460938-7.722657 7.726563-7.722657h.472656c4.269531 0 7.726563 3.457031 7.726563 7.722657 0 4.269531-3.457032 7.726562-7.726563 7.726562zm0 0"
     fill="#ff8980"
     id="path178" />
  <path
     d="m224.03125 244.894531h-.472656c-4.269532 0-7.726563-3.460937-7.726563-7.726562s3.460938-7.726563 7.726563-7.726563h.472656c4.269531 0 7.726562 3.460938 7.726562 7.726563s-3.457031 7.726562-7.726562 7.726562zm0 0"
     fill="#ff8980"
     id="path180" />
  <path
     d="m162.597656 219.78125h-.472656c-4.269531 0-7.726562-3.457031-7.726562-7.722656 0-4.269532 3.460937-7.726563 7.726562-7.726563h.472656c4.265625 0 7.726563 3.457031 7.726563 7.726563 0 4.265625-3.460938 7.722656-7.726563 7.722656zm0 0"
     fill="#8df4ff"
     id="path182" />
  <path
     d="m162.597656 193.929688h-.472656c-4.269531 0-7.726562-3.457032-7.726562-7.726563 0-4.265625 3.460937-7.726563 7.726562-7.726563h.472656c4.265625 0 7.726563 3.460938 7.726563 7.726563 0 4.269531-3.460938 7.726563-7.726563 7.726563zm0 0"
     fill="#8df4ff"
     id="path184" />
  <path
     d="m183.484375 219.78125h-.472656c-4.269531 0-7.726563-3.457031-7.726563-7.722656 0-4.269532 3.460938-7.726563 7.726563-7.726563h.472656c4.269531 0 7.726563 3.457031 7.726563 7.726563 0 4.265625-3.457032 7.722656-7.726563 7.722656zm0 0"
     fill="#8df4ff"
     id="path186" />
  <path
     d="m204.371094 219.78125h-.472656c-4.265626 0-7.726563-3.457031-7.726563-7.722656 0-4.269532 3.460937-7.726563 7.726563-7.726563h.472656c4.269531 0 7.726562 3.457031 7.726562 7.726563 0 4.265625-3.457031 7.722656-7.726562 7.722656zm0 0"
     fill="#8df4ff"
     id="path188" />
  <path
     d="m225.261719 219.78125h-.472657c-4.269531 0-7.726562-3.457031-7.726562-7.722656 0-4.269532 3.457031-7.726563 7.726562-7.726563h.472657c4.265625 0 7.722656 3.457031 7.722656 7.726563 0 4.265625-3.457031 7.722656-7.722656 7.722656zm0 0"
     fill="#8df4ff"
     id="path190" />
  <path
     d="M 475.93389,196.59264 H 330.72295 c -4.26953,0 -7.72656,-3.46093 -7.72656,-7.72656 0,-4.26562 3.46094,-7.72656 7.72656,-7.72656 h 145.21094 c 4.26562,0 7.72265,3.46094 7.72265,7.72656 0.004,4.26563 -3.45703,7.72656 -7.72265,7.72656 z m 0,0"
     id="path192"
     style="fill:#4ce0d2;fill-opacity:1"
     inkscape:connector-curvature="0" />
  <path
     d="m 308.91045,196.59264 h -7.42969 c -4.26562,0 -7.72265,-3.46093 -7.72265,-7.72656 0,-4.26562 3.45703,-7.72656 7.72265,-7.72656 h 7.42969 c 4.26953,0 7.72656,3.46094 7.72656,7.72656 0.004,4.26563 -3.45703,7.72656 -7.72656,7.72656 z m 0,0"
     id="path194"
     style="fill:#4ce0d2;fill-opacity:1"
     inkscape:connector-curvature="0" />
  <path
     d="M 446.6917,238.07702 H 301.48467 c -4.26953,0 -7.72656,-3.45703 -7.72656,-7.72656 0,-4.26563 3.45703,-7.72657 7.72656,-7.72657 H 446.6917 c 4.26953,0 7.72656,3.46094 7.72656,7.72657 0,4.26562 -3.46093,7.72656 -7.72656,7.72656 z m 0,0"
     id="path196"
     style="fill:#4ce0d2;fill-opacity:1"
     inkscape:connector-curvature="0" />
  <path
     d="m 475.93389,238.07702 h -7.4336 c -4.26562,0 -7.72265,-3.45703 -7.72265,-7.72656 0,-4.26563 3.45703,-7.72657 7.72265,-7.72657 h 7.4336 c 4.26562,0 7.72265,3.46094 7.72265,7.72657 0.004,4.26562 -3.45703,7.72656 -7.72265,7.72656 z m 0,0"
     id="path198"
     style="fill:#4ce0d2;fill-opacity:1"
     inkscape:connector-curvature="0" />
  <path
     d="M 476.53766,217.33483 H 302.08454 c -4.26563,0 -7.72266,-3.46094 -7.72266,-7.72656 0,-4.26563 3.45703,-7.72657 7.72266,-7.72657 h 174.45312 c 4.26563,0 7.72266,3.46094 7.72266,7.72657 0.004,4.26562 -3.45703,7.72656 -7.72266,7.72656 z m 0,0"
     id="path200"
     style="fill:#4ce0d2;fill-opacity:1"
     inkscape:connector-curvature="0" />
  <path
     inkscape:connector-curvature="0"
     style="fill:#ff8980;stroke-width:0.99999994"
     d="m 302.40857,80.254865 h -0.47265 c -4.26563,0 -7.72266,-3.46095 -7.72266,-7.72656 0,-4.26563 3.45703,-7.72656 7.72266,-7.72656 h 0.47265 c 4.26954,0 7.72657,3.46093 7.72657,7.72656 0,4.26561 -3.45703,7.72656 -7.72657,7.72656 z m 0,0"
     id="path162-4" />
  <path
     inkscape:connector-curvature="0"
     style="fill:#ff8980;stroke-width:0.99999994"
     d="m 450.41638,80.254865 h -24.96484 c -4.26953,0 -7.72657,-3.46095 -7.72657,-7.72656 0,-4.26563 3.46094,-7.72656 7.72657,-7.72656 h 24.96484 c 4.26953,0 7.72656,3.46093 7.72656,7.72656 0,4.26561 -3.45703,7.72656 -7.72656,7.72656 z m 0,0"
     id="path164-4" />
  <path
     inkscape:connector-curvature="0"
     style="fill:#ff8980;stroke-width:0.99999994"
     d="M 402.78747,80.254865 H 326.5531 c -4.26562,0 -7.72265,-3.46095 -7.72265,-7.72656 0,-4.26563 3.45703,-7.72656 7.72265,-7.72656 h 76.23437 c 4.26954,0 7.72657,3.46093 7.72657,7.72656 0,4.26561 -3.45703,7.72656 -7.72657,7.72656 z m 0,0"
     id="path166-0" />
  <path
     inkscape:connector-curvature="0"
     style="fill:#ff8980;stroke-width:0.99999994"
     d="m 476.9281,80.254865 h -0.47266 c -4.26953,0 -7.72656,-3.46095 -7.72656,-7.72656 0,-4.26563 3.46094,-7.72656 7.72656,-7.72656 h 0.47266 c 4.26953,0 7.72656,3.46093 7.72656,7.72656 0,4.26561 -3.45703,7.72656 -7.72656,7.72656 z m 0,0"
     id="path180-7" />
  <path
     inkscape:connector-curvature="0"
     style="fill:#32f4ff;fill-opacity:1;stroke-width:0.99999994"
     d="m 299.3802,154.33152 h -0.47266 c -4.26562,0 -7.72266,-3.45703 -7.72266,-7.72266 0,-4.26953 3.45704,-7.72656 7.72266,-7.72656 h 0.47266 c 4.26953,0 7.72656,3.45703 7.72656,7.72656 0,4.26563 -3.45703,7.72266 -7.72656,7.72266 z m 0,0"
     id="path158-8" />
  <path
     inkscape:connector-curvature="0"
     style="fill:#32f4ff;fill-opacity:1;stroke-width:0.99999994"
     d="m 388.08332,154.33152 h -64.55859 c -4.26563,0 -7.72266,-3.45703 -7.72266,-7.72266 0,-4.26953 3.45703,-7.72656 7.72266,-7.72656 h 64.55859 c 4.26952,0 7.72656,3.45703 7.72656,7.72656 0,4.26563 -3.45704,7.72266 -7.72656,7.72266 z m 0,0"
     id="path160-3" />
  <path
     inkscape:connector-curvature="0"
     style="fill:#32f4ff;fill-opacity:1;stroke-width:0.99999994"
     d="m 412.46613,154.70262 h -0.47266 c -4.26953,0 -7.72656,-3.45703 -7.72656,-7.72267 0,-4.26953 3.46093,-7.72656 7.72656,-7.72656 h 0.47266 c 4.26562,0 7.72656,3.45703 7.72656,7.72656 0,4.26564 -3.46094,7.72267 -7.72656,7.72267 z m 0,0"
     id="path182-6" />
  <path
     inkscape:connector-curvature="0"
     style="fill:#32f4ff;fill-opacity:1;stroke-width:0.99999994"
     d="m 433.35284,154.70262 h -0.47265 c -4.26953,0 -7.72656,-3.45703 -7.72656,-7.72267 0,-4.26953 3.46093,-7.72656 7.72656,-7.72656 h 0.47265 c 4.26954,0 7.72657,3.45703 7.72657,7.72656 0,4.26564 -3.45703,7.72267 -7.72657,7.72267 z m 0,0"
     id="path186-5" />
  <path
     inkscape:connector-curvature="0"
     style="fill:#32f4ff;fill-opacity:1;stroke-width:0.99999994"
     d="m 454.23956,154.70262 h -0.47265 c -4.26563,0 -7.72657,-3.45703 -7.72657,-7.72267 0,-4.26953 3.46094,-7.72656 7.72657,-7.72656 h 0.47265 c 4.26953,0 7.72657,3.45703 7.72657,7.72656 0,4.26564 -3.45704,7.72267 -7.72657,7.72267 z m 0,0"
     id="path188-2" />
  <path
     inkscape:connector-curvature="0"
     style="fill:#32f4ff;fill-opacity:1;stroke-width:0.99999994"
     d="m 475.13019,154.70262 h -0.47266 c -4.26953,0 -7.72656,-3.45703 -7.72656,-7.72267 0,-4.26953 3.45703,-7.72656 7.72656,-7.72656 h 0.47266 c 4.26562,0 7.72265,3.45703 7.72265,7.72656 0,4.26564 -3.45703,7.72267 -7.72265,7.72267 z m 0,0"
     id="path190-6" />
</svg>
