<svg id="Document_Icon" data-name="Document Icon" xmlns="http://www.w3.org/2000/svg" width="52.785" height="51.46" viewBox="0 0 52.785 51.46">
  <path id="Path_154" data-name="Path 154" d="M0,0H52.785V51.46H0Z" fill="none"/>
  <path id="Path_155" data-name="Path 155" d="M13.4,34.222H31.591v4.746H13.4Zm0-9.492H39.388v4.746H13.4Zm0-9.492H39.388v4.746H13.4Zm31.19-9.492H33.722A7.81,7.81,0,0,0,26.392,1a7.81,7.81,0,0,0-7.33,4.746H8.2a4.972,4.972,0,0,0-1.04.095A5.38,5.38,0,0,0,4.533,7.146,4.753,4.753,0,0,0,3.416,8.665,4.234,4.234,0,0,0,3,10.492V43.714a4.507,4.507,0,0,0,.416,1.851,5.028,5.028,0,0,0,1.118,1.519,5.38,5.38,0,0,0,2.625,1.305,7.376,7.376,0,0,0,1.04.071H44.586a5,5,0,0,0,5.2-4.746V10.492A5,5,0,0,0,44.586,5.746ZM26.392,5.153a1.884,1.884,0,0,1,1.949,1.78,1.957,1.957,0,0,1-3.9,0A1.884,1.884,0,0,1,26.392,5.153ZM44.586,43.714H8.2V10.492H44.586Z" transform="translate(0 0)" fill="#298eb3"/>
</svg>
