<?xml version="1.0" encoding="UTF-8" standalone="no"?>
<svg
   xmlns:dc="http://purl.org/dc/elements/1.1/"
   xmlns:cc="http://creativecommons.org/ns#"
   xmlns:rdf="http://www.w3.org/1999/02/22-rdf-syntax-ns#"
   xmlns:svg="http://www.w3.org/2000/svg"
   xmlns="http://www.w3.org/2000/svg"
   xmlns:sodipodi="http://sodipodi.sourceforge.net/DTD/sodipodi-0.dtd"
   xmlns:inkscape="http://www.inkscape.org/namespaces/inkscape"
   width="52.795"
   height="57.15"
   viewBox="0 0 52.795 57.15"
   version="1.1"
   id="svg20"
   sodipodi:docname="graduation_cap.svg"
   inkscape:version="0.92.4 (5da689c313, 2019-01-14)">
  <metadata
     id="metadata26">
    <rdf:RDF>
      <cc:Work
         rdf:about="">
        <dc:format>image/svg+xml</dc:format>
        <dc:type
           rdf:resource="http://purl.org/dc/dcmitype/StillImage" />
      </cc:Work>
    </rdf:RDF>
  </metadata>
  <defs
     id="defs24" />
  <sodipodi:namedview
     pagecolor="#ffffff"
     bordercolor="#666666"
     borderopacity="1"
     objecttolerance="10"
     gridtolerance="10"
     guidetolerance="10"
     inkscape:pageopacity="0"
     inkscape:pageshadow="2"
     inkscape:window-width="1920"
     inkscape:window-height="1017"
     id="namedview22"
     showgrid="false"
     inkscape:zoom="14.838145"
     inkscape:cx="22.522352"
     inkscape:cy="28.575001"
     inkscape:window-x="1912"
     inkscape:window-y="-8"
     inkscape:window-maximized="1"
     inkscape:current-layer="svg20" />
  <path
     id="College"
     d="M49.275,57.15v0c-.035-.061-3.518-6.162-3.518-8.465a4.4,4.4,0,0,1,1.76-3.647V26.149l3.52-2.117V45.037a4.4,4.4,0,0,1,1.76,3.647c0,2.3-3.484,8.4-3.519,8.465ZM26.4,48.684a20.332,20.332,0,0,1-11.2-3.1c-2.991-2-4.639-4.656-4.639-7.483V29.319L23.995,37.4a3.065,3.065,0,0,0,.454.227,4.242,4.242,0,0,0,3.905,0A3.119,3.119,0,0,0,28.8,37.4l13.436-8.082V38.1c0,2.826-1.647,5.484-4.639,7.483A20.33,20.33,0,0,1,26.4,48.684Zm0-14.817a1.532,1.532,0,0,1-.842-.261L.945,18.81a2.332,2.332,0,0,1,0-3.749v0L25.565.252A1.5,1.5,0,0,1,27.239.26l24.611,14.8a2.333,2.333,0,0,1,0,3.75l-.008.008-.009,0L46.094,22.27a2.094,2.094,0,0,0-.332-.254l-14.515-8.9a1.746,1.746,0,0,0-.922-.268,2.022,2.022,0,0,0-1.816,1.338,2.7,2.7,0,0,0,.89,3.294l12.21,7.483L27.229,33.615A1.537,1.537,0,0,1,26.4,33.867Z"
     transform="translate(0 0)"
     fill="#000"
     style="fill:#000;fill-opacity:0.74371856" />
</svg>
