<svg xmlns="http://www.w3.org/2000/svg" width="828" height="576.025" viewBox="0 0 828 576.025">
  <g id="Laptop" transform="translate(10.604 -598.268)">
    <path id="Path_157" data-name="Path 157" d="M954.6,863.29H879.96c-21.255,0-38.486-14.316-38.486-32s17.232-32,38.486-32h25.654c21.253,0,38.484-14.316,38.484-32s-17.232-32-38.484-32H751.68c-21.254,0-38.485-14.316-38.485-32s17.231-32,38.485-32h258.894c21.252,0,38.483-14.316,38.483-32s-17.231-32-38.483-32H826.316c-21.252,0-38.482-14.319-38.482-32s17.23-32,38.482-32h69.971c21.255,0,38.483-14.317,38.483-32s-17.229-32-38.483-32H742.353c-21.252,0-38.484-14.317-38.484-32s17.232-32,38.484-32h23.323c21.254,0,38.485-14.316,38.485-32s-17.231-32-38.485-32H532.438c-21.252,0-38.483,14.318-38.483,32s17.231,32,38.483,32h13.995c21.255,0,38.484,14.317,38.484,32s-17.23,32-38.484,32H520.775c-21.252,0-38.484,14.316-38.484,32s17.231,32,38.484,32h-4.664c21.252,0,38.483,14.317,38.483,32s-17.231,32-38.483,32H261.882c-21.255,0-38.486,14.316-38.486,32s17.231,32,38.486,32h65.3c21.252,0,38.483,14.317,38.483,32s-17.231,32-38.483,32h-9.329c-21.254,0-38.486,14.316-38.486,32s17.231,32,38.486,32H492.781c21.252,0,38.484,14.318,38.484,32s-17.231,32-38.484,32H404.149c-21.255,0-38.486,14.317-38.486,32s17.231,32,38.486,32H954.561c21.254,0,38.486-14.316,38.486-32s-17.231-32-38.485-32Z" transform="translate(-234 247)" fill="#a7cfe8"/>
    <path id="Path_158" data-name="Path 158" d="M379.411,926.19l-67.891,82.287,6.409,5.016,67.693-81.647Z" transform="translate(-275.101 -80.098)" fill="#9db6c9"/>
    <path id="Path_159" data-name="Path 159" d="M316.051,1013.776a2.131,2.131,0,0,1-1.311-.451l-6.41-4.985a2.137,2.137,0,0,1-.336-3.047l67.9-82.3a2.139,2.139,0,0,1,3.086-.219l6.21,5.655a2.137,2.137,0,0,1,.206,2.944L317.7,1013a2.137,2.137,0,0,1-1.646.772Zm-3.359-7.458,3.038,2.362L380.8,930.219l-3.042-2.771-65.068,78.872Z" transform="translate(-273.229 -78.254)" fill="#305d8a"/>
    <path id="Path_160" data-name="Path 160" d="M314.27,1130.535l40.2,78.173h8.548L321.084,1126.8Z" transform="translate(-276.383 -193.531)" fill="#9db6c9"/>
    <path id="Path_161" data-name="Path 161" d="M361.148,1208.974H352.6a2.138,2.138,0,0,1-1.9-1.161l-40.2-78.167a2.139,2.139,0,0,1,.872-2.851l6.813-3.74a2.139,2.139,0,0,1,2.932.9l41.931,81.908a2.138,2.138,0,0,1-1.9,3.111Zm-7.243-4.274h3.748l-39.335-76.839-3.063,1.679,38.651,75.164Z" transform="translate(-274.516 -191.808)" fill="#305d8a"/>
    <path id="Path_162" data-name="Path 162" d="M422.635,804.512a11.753,11.753,0,1,1-16.622,0A11.758,11.758,0,0,1,422.635,804.512Z" transform="translate(-317.567 -4.512)" fill="#9db6c9"/>
    <path id="Path_163" data-name="Path 163" d="M412.457,824.843a13.888,13.888,0,1,1,9.822-4.067A13.8,13.8,0,0,1,412.457,824.843Zm0-23.5a9.614,9.614,0,1,0,6.8,2.815A9.56,9.56,0,0,0,412.457,801.341Z" transform="translate(-315.703 -2.539)" fill="#305d8a"/>
    <path id="Path_164" data-name="Path 164" d="M531.569,900.874a20.65,20.65,0,1,1-29.2,0A20.654,20.654,0,0,1,531.569,900.874Z" transform="translate(-361.29 -58.316)" fill="#fff"/>
    <path id="Path_165" data-name="Path 165" d="M515.114,936.389a22.786,22.786,0,1,1,16.113-6.673A22.64,22.64,0,0,1,515.114,936.389Zm0-41.3a18.512,18.512,0,1,0,13.091,5.421A18.4,18.4,0,0,0,515.114,895.09Z" transform="translate(-359.434 -56.403)" fill="#305d8a"/>
    <rect id="Rectangle_652" data-name="Rectangle 652" width="42.734" height="14.955" transform="translate(79.384 821.036) rotate(-45)" fill="#9db6c9"/>
    <path id="Path_166" data-name="Path 166" d="M400.74,831.6a2.13,2.13,0,0,1-1.511-.626L388.654,820.4a2.136,2.136,0,0,1,0-3.021l30.219-30.218a2.136,2.136,0,0,1,3.021,0l10.575,10.577a2.136,2.136,0,0,1,0,3.021L402.25,830.974A2.129,2.129,0,0,1,400.74,831.6Zm-7.554-12.712,7.554,7.554,27.2-27.2-7.554-7.556Z" transform="translate(-310.784 2.272)" fill="#305d8a"/>
    <path id="Path_167" data-name="Path 167" d="M502.326,846.436l-54.4,54.39-55.9-67.992,42.3-42.3Z" transform="translate(-312.65 -4.695)" fill="#9db6c9"/>
    <path id="Path_168" data-name="Path 168" d="M446.063,900.413h-.1c-.6,0-1.162.017-1.546-.45l-55.9-67.827a2.027,2.027,0,0,1,.14-2.783l42.3-42.265a2.138,2.138,0,0,1,2.867-.119l67.992,55.911a2.144,2.144,0,0,1,.155,3.17l-54.39,54.065c-.4.4-.946.3-1.511.3Zm-53.021-69.326,53.175,64.673L497.279,844.7l-64.673-53.175-39.562,39.562Z" transform="translate(-310.782 -2.664)" fill="#305d8a"/>
    <g id="Group_8" data-name="Group 8" transform="translate(102.042 790.586)" opacity="0.2">
      <path id="Path_169" data-name="Path 169" d="M493.426,874.642l25.437-25.432-64.577-53.27L434.5,815.715Z" transform="translate(-434.5 -795.94)" fill="#9db6c9"/>
    </g>
    <g id="Group_9" data-name="Group 9" transform="translate(95.998 794.833)" opacity="0.2">
      <rect id="Rectangle_653" data-name="Rectangle 653" width="19.231" height="4.273" transform="translate(0 13.598) rotate(-45)" fill="#9db6c9"/>
    </g>
    <g id="Group_10" data-name="Group 10" transform="translate(88.066 799.501)" opacity="0.2">
      <path id="Path_170" data-name="Path 170" d="M418.763,805.469s-6.174-1.673-10.454,4.765c0,0,3.276-.611,4.914.773Z" transform="translate(-408.309 -805.273)" fill="#9db6c9"/>
    </g>
    <g id="Group_11" data-name="Group 11" transform="translate(153.22 853.382)" opacity="0.2">
      <path id="Path_171" data-name="Path 171" d="M530.41,950.48l3.218.064,16.616-16.622,1.51-1.51-.128-2.892L530.6,950.544" transform="translate(-530.41 -929.52)" fill="#9db6c9"/>
    </g>
    <path id="Path_172" data-name="Path 172" d="M315.869,1092.023a15.189,15.189,0,1,1-15.189-15.191A15.187,15.187,0,0,1,315.869,1092.023Z" transform="translate(-262.961 -159.406)" fill="#9db6c9"/>
    <path id="Path_173" data-name="Path 173" d="M298.807,1107.514a17.325,17.325,0,1,1,17.325-17.324A17.344,17.344,0,0,1,298.807,1107.514Zm0-30.377a13.052,13.052,0,1,0,13.052,13.053A13.066,13.066,0,0,0,298.807,1077.137Z" transform="translate(-261.091 -157.622)" fill="#305d8a"/>
    <g id="Group_12" data-name="Group 12" transform="translate(37.487 919.654)" opacity="0.2">
      <path id="Path_174" data-name="Path 174" d="M313.52,1080.9V1107c6.41,0,13.051-5.842,13.051-13.05S319.93,1080.9,313.52,1080.9Z" transform="translate(-313.52 -1080.9)" fill="#9db6c9"/>
    </g>
    <path id="Path_175" data-name="Path 175" d="M314.835,1099.2a6.982,6.982,0,1,1-6.982-6.984,6.981,6.981,0,0,1,6.982,6.984Z" transform="translate(-270.134 -166.34)" fill="#9db6c9"/>
    <path id="Path_176" data-name="Path 176" d="M305.98,1106.46a9.119,9.119,0,1,1,9.119-9.117A9.127,9.127,0,0,1,305.98,1106.46Zm0-13.964a4.845,4.845,0,1,0,4.845,4.847A4.852,4.852,0,0,0,305.98,1092.5Z" transform="translate(-268.264 -164.542)" fill="#305d8a"/>
    <path id="Path_177" data-name="Path 177" d="M411.371,1320.512a42.059,42.059,0,1,0-82.508,0h82.506Z" transform="translate(-282.814 -270.433)" fill="#9db6c9"/>
    <path id="Path_178" data-name="Path 178" d="M409.5,1320.777H327a2.139,2.139,0,0,1-2.1-1.724,44.2,44.2,0,1,1,86.7,0,2.138,2.138,0,0,1-2.1,1.726Zm-80.713-4.274h78.915a39.921,39.921,0,1,0-78.916,0Z" transform="translate(-280.947 -268.768)" fill="#305d8a"/>
    <g id="Group_13" data-name="Group 13" transform="translate(67.677 999.867)" opacity="0.2">
      <path id="Path_179" data-name="Path 179" d="M389.726,1270.3a41.872,41.872,0,0,0-19.627,4.872,41.808,41.808,0,0,1,48.864,41.459c0,1.311-.075,2.6-.2,3.881h12.211a42.025,42.025,0,0,0-41.253-50.212Z" transform="translate(-370.099 -1270.3)" fill="#9db6c9"/>
    </g>
    <g id="Group_14" data-name="Group 14" transform="translate(44.013 851.145)" opacity="0.2">
      <path id="Path_180" data-name="Path 180" d="M387.243,935.27l-61.493,74.615,1.846.961,60.98-73.793Z" transform="translate(-325.75 -935.27)" fill="#9db6c9"/>
    </g>
    <g id="Group_15" data-name="Group 15" transform="translate(42.919 938.244)" opacity="0.2">
      <path id="Path_181" data-name="Path 181" d="M325.392,1135.1l-1.692.747,36.146,70.328H361.8Z" transform="translate(-323.7 -1135.1)" fill="#9db6c9"/>
    </g>
    <path id="Path_182" data-name="Path 182" d="M1562.467,924.682c-3.781,7.472-12.127,10.859-18.644,7.56s-8.73-12.027-4.947-19.5,12.128-10.859,18.642-7.562,8.73,12.027,4.949,19.5Z" transform="translate(-846.673 -62.491)" fill="#afddb5"/>
    <path id="Path_183" data-name="Path 183" d="M1547.227,933.765a13.828,13.828,0,0,1-6.3-1.492,14.452,14.452,0,0,1-7.438-9.565,18.394,18.394,0,0,1,1.55-12.808c3.072-6.07,9.044-9.995,15.214-9.995a13.828,13.828,0,0,1,6.3,1.492c7.555,3.823,10.2,13.859,5.892,22.373C1559.367,929.843,1553.4,933.765,1547.227,933.765Zm3.021-29.586c-4.573,0-9.048,3-11.4,7.652a14.123,14.123,0,0,0-1.222,9.826,10.238,10.238,0,0,0,5.227,6.8,9.576,9.576,0,0,0,4.373,1.033c4.573,0,9.047-3,11.4-7.649,3.245-6.412,1.446-13.872-4.007-16.63A9.586,9.586,0,0,0,1550.248,904.179Z" transform="translate(-844.772 -60.577)" fill="#305d8a"/>
    <g id="Group_16" data-name="Group 16" transform="translate(691.544 842.245)" opacity="0.38">
      <path id="Path_184" data-name="Path 184" d="M1558.541,905.97c-.267-.136-.542-.242-.813-.355a15.918,15.918,0,0,1-.647,13.447c-3.626,7.166-11.445,10.556-17.828,7.915a12.043,12.043,0,0,0,5.594,6.055c6.517,3.3,14.863-.088,18.644-7.56S1565.058,909.267,1558.541,905.97Z" transform="translate(-1539.253 -905.615)" fill="#9db6c9"/>
    </g>
    <path id="Path_185" data-name="Path 185" d="M1513.708,938.035c8.651,16.484,4.069,35.93-10.233,43.435s-32.911.225-41.559-16.259-4.071-35.928,10.233-43.435S1505.058,921.551,1513.708,938.035Z" transform="translate(-809.6 -73.89)" fill="#afddb5"/>
    <path id="Path_186" data-name="Path 186" d="M1489.573,984.72c-12.542,0-24.841-7.992-31.33-20.36a38.364,38.364,0,0,1-3.679-26.567c2.076-8.814,7.336-15.831,14.811-19.754a27.925,27.925,0,0,1,13.112-3.2c12.543,0,24.842,7.992,31.333,20.359a38.382,38.382,0,0,1,3.679,26.567c-2.078,8.816-7.337,15.832-14.811,19.755A27.938,27.938,0,0,1,1489.573,984.72Zm-7.086-65.607a23.7,23.7,0,0,0-11.126,2.712,25.152,25.152,0,0,0-12.639,16.95,34.1,34.1,0,0,0,3.305,23.6c5.759,10.978,16.572,18.072,27.545,18.072a23.708,23.708,0,0,0,11.128-2.712,25.148,25.148,0,0,0,12.637-16.948,34.093,34.093,0,0,0-3.3-23.6C1504.273,926.209,1493.46,919.114,1482.487,919.114Z" transform="translate(-807.769 -72.022)" fill="#305d8a"/>
    <g id="Group_17" data-name="Group 17" transform="translate(660.999 844.933)" opacity="0.38">
      <path id="Path_187" data-name="Path 187" d="M1525.12,938.036c-8.651-16.485-27.256-23.766-41.559-16.26-.541.284-1.037.615-1.551.933,12.138,1.067,23.56,10.421,27.986,24.315,4.656,14.616.1,29.626-10.25,37.209a26.187,26.187,0,0,0,15.141-2.758c14.3-7.506,18.884-26.953,10.233-43.438Z" transform="translate(-1482.01 -918.82)" fill="#9db6c9"/>
    </g>
    <ellipse id="Ellipse_97" data-name="Ellipse 97" cx="18.162" cy="12.286" rx="18.162" ry="12.286" transform="translate(640.699 919.442) rotate(18.584)" fill="#afddb5"/>
    <path id="Path_188" data-name="Path 188" d="M1455.565,1117.025a27.428,27.428,0,0,1-8.738-1.474c-10.791-3.629-17.223-12.474-14.647-20.14,1.8-5.352,7.585-8.677,15.1-8.677a27.434,27.434,0,0,1,8.739,1.473c10.79,3.629,17.222,12.474,14.646,20.141C1468.863,1113.7,1463.077,1117.025,1455.565,1117.025Zm-8.288-26.017c-5.534,0-9.868,2.261-11.045,5.764-1.755,5.216,3.72,11.96,11.954,14.728a23.117,23.117,0,0,0,7.378,1.252c5.534,0,9.868-2.261,11.045-5.763,1.755-5.216-3.721-11.961-11.954-14.728A23.128,23.128,0,0,0,1447.277,1091.009Z" transform="translate(-797.506 -164.944)" fill="#305d8a"/>
    <g id="Group_18" data-name="Group 18" transform="translate(636.284 924.138)" opacity="0.38">
      <path id="Path_189" data-name="Path 189" d="M1457.254,1092.11c-9.507-3.2-18.968-.574-21.129,5.857a8.549,8.549,0,0,0-.432,2.655c4.075-1.7,9.6-1.832,15.151.035,8.23,2.767,13.787,8.986,13.732,14.778a10.034,10.034,0,0,0,5.978-5.892C1472.716,1103.112,1466.762,1095.306,1457.254,1092.11Z" transform="translate(-1435.693 -1090.748)" fill="#9db6c9"/>
    </g>
    <path id="Path_190" data-name="Path 190" d="M1652.261,1010.6c4.348,6.6-.03,17.158-9.782,23.591s-21.186,6.3-25.536-.3.029-17.16,9.78-23.591S1647.909,1004,1652.261,1010.6Z" transform="translate(-883.159 -119.763)" fill="#afddb5"/>
    <path id="Path_191" data-name="Path 191" d="M1626.1,1039.2c-5.676,0-10.205-2.131-12.758-6-4.991-7.573-.331-19.483,10.387-26.552a29.229,29.229,0,0,1,15.742-5.092c5.676,0,10.206,2.131,12.757,6,4.991,7.571.33,19.481-10.39,26.552a29.206,29.206,0,0,1-15.739,5.092Zm13.371-33.367a24.9,24.9,0,0,0-13.388,4.386c-8.6,5.674-12.805,15.122-9.172,20.63,1.734,2.63,5,4.077,9.19,4.077a24.9,24.9,0,0,0,13.385-4.386c8.606-5.676,12.806-15.124,9.175-20.63C1646.924,1007.281,1643.661,1005.833,1639.469,1005.833Z" transform="translate(-881.329 -117.921)" fill="#305d8a"/>
    <g id="Group_19" data-name="Group 19" transform="translate(732.124 887.223)" opacity="0.38">
      <path id="Path_192" data-name="Path 192" d="M1652.28,1011.955a10.3,10.3,0,0,0-3.985-3.482c2.324,7.431-4.526,16.391-15.465,20.121-6.394,2.18-12.771,2.082-17.511.173a10.654,10.654,0,0,0,1.645,6.475c4.35,6.594,15.785,6.73,25.536.3S1656.628,1018.55,1652.28,1011.955Z" transform="translate(-1615.302 -1008.474)" fill="#9db6c9"/>
    </g>
    <ellipse id="Ellipse_98" data-name="Ellipse 98" cx="47.007" cy="57.154" rx="47.007" ry="57.154" transform="translate(657.155 873.943)" fill="#afddb5"/>
    <path id="Path_193" data-name="Path 193" d="M1519.946,1112.548c-27.1,0-49.145-26.6-49.145-59.294s22.045-59.294,49.145-59.294,49.144,26.6,49.144,59.294S1547.045,1112.548,1519.946,1112.548Zm0-114.314c-24.741,0-44.871,24.683-44.871,55.02s20.13,55.02,44.871,55.02,44.871-24.683,44.871-55.02S1544.687,998.234,1519.946,998.234Z" transform="translate(-815.783 -122.249)" fill="#305d8a"/>
    <g id="Group_20" data-name="Group 20" transform="translate(694.547 873.947)" opacity="0.38">
      <path id="Path_194" data-name="Path 194" d="M1554.5,998a39.165,39.165,0,0,0-9.615,1.2c21.35,5.4,37.392,28.4,37.392,55.955s-16.042,50.56-37.392,55.955a39.127,39.127,0,0,0,9.615,1.2c25.962,0,47.007-25.59,47.007-57.156S1580.458,998,1554.5,998Z" transform="translate(-1544.881 -998)" fill="#9db6c9"/>
    </g>
    <path id="Path_195" data-name="Path 195" d="M1562.416,1262.642a12.115,12.115,0,0,1-12.115,12.113h-84.742a12.115,12.115,0,0,1-12.115-12.113l-10.683-78.339a12.115,12.115,0,0,1,12.115-12.112h106.107A12.115,12.115,0,0,1,1573.1,1184.3l-10.684,78.339Z" transform="translate(-802.706 -222.237)" fill="#e4c6aa"/>
    <path id="Path_196" data-name="Path 196" d="M1548.438,1275.02H1463.7a14.267,14.267,0,0,1-14.252-14.1l-10.665-78.2a2.207,2.207,0,0,1-.019-.288,14.266,14.266,0,0,1,14.252-14.25H1559.12a14.266,14.266,0,0,1,14.252,14.25,2.228,2.228,0,0,1-.019.288l-10.664,78.2a14.269,14.269,0,0,1-14.253,14.1Zm-105.4-92.725,10.665,78.184a2.212,2.212,0,0,1,.019.288,9.988,9.988,0,0,0,9.978,9.976h84.742a9.988,9.988,0,0,0,9.978-9.976,2.124,2.124,0,0,1,.019-.288L1569.1,1182.3a9.991,9.991,0,0,0-9.978-9.839H1453.014a9.989,9.989,0,0,0-9.978,9.839Z" transform="translate(-800.84 -220.574)" fill="#305d8a"/>
    <g id="Group_21" data-name="Group 21" transform="translate(736.903 949.958)" opacity="0.38">
      <path id="Path_197" data-name="Path 197" d="M1645.625,1172.2h-10.683a12.115,12.115,0,0,1,12.115,12.112l-10.683,78.34a12.115,12.115,0,0,1-12.115,12.113h10.683a12.115,12.115,0,0,0,12.115-12.113l10.683-78.34A12.115,12.115,0,0,0,1645.625,1172.2Z" transform="translate(-1624.258 -1172.2)" fill="#aa9e80"/>
    </g>
    <path id="Path_198" data-name="Path 198" d="M1034.521,1068.163a12.114,12.114,0,0,1-12.115,12.113H629.977a12.114,12.114,0,0,1-12.115-12.113V803.933a12.115,12.115,0,0,1,12.115-12.113h392.429a12.115,12.115,0,0,1,12.115,12.113Z" transform="translate(-417.977 -26.152)" fill="#fff"/>
    <path id="Path_199" data-name="Path 199" d="M1020.543,1080.54H628.114a14.266,14.266,0,0,1-14.252-14.25V802.06a14.266,14.266,0,0,1,14.252-14.25h392.429a14.267,14.267,0,0,1,14.252,14.25v264.23a14.266,14.266,0,0,1-14.252,14.25ZM628.114,792.084a9.989,9.989,0,0,0-9.978,9.976v264.231a9.989,9.989,0,0,0,9.978,9.976h392.429a9.989,9.989,0,0,0,9.978-9.976V802.06a9.989,9.989,0,0,0-9.978-9.976Z" transform="translate(-416.111 -24.383)" fill="#305d8a"/>
    <g id="Group_22" data-name="Group 22" transform="translate(598.387 768.401)" opacity="0.2">
      <path id="Path_200" data-name="Path 200" d="M1368.582,791.78h-3.91a9.615,9.615,0,0,1,9.615,9.615v261.737h6.41V803.892a12.115,12.115,0,0,0-12.115-12.113Z" transform="translate(-1364.672 -791.779)" fill="#9db6c9"/>
    </g>
    <g id="Group_23" data-name="Group 23" transform="translate(225.503 789.963)" opacity="0.2">
      <path id="Path_201" data-name="Path 201" d="M1031.246,1018.929a12.114,12.114,0,0,1-12.115,12.112H677.987a12.114,12.114,0,0,1-12.115-12.112V835.893a12.115,12.115,0,0,1,12.115-12.113h341.144a12.115,12.115,0,0,1,12.115,12.113Z" transform="translate(-665.872 -823.78)" fill="#9db6c9"/>
    </g>
    <path id="Path_202" data-name="Path 202" d="M1031.246,1084.344a12.115,12.115,0,0,1-12.115,12.113H677.987a12.115,12.115,0,0,1-12.115-12.113V847.893a12.115,12.115,0,0,1,12.115-12.113h341.144a12.115,12.115,0,0,1,12.115,12.113Z" transform="translate(-440.368 -48.618)" fill="#efefef"/>
    <path id="Path_203" data-name="Path 203" d="M1017.268,1096.822H676.124a14.266,14.266,0,0,1-14.252-14.25V846.122a14.266,14.266,0,0,1,14.252-14.249h341.144a14.266,14.266,0,0,1,14.252,14.249v236.451a14.267,14.267,0,0,1-14.252,14.25ZM676.124,836.145a9.988,9.988,0,0,0-9.978,9.976v236.451a9.988,9.988,0,0,0,9.978,9.976h341.144a9.988,9.988,0,0,0,9.978-9.976V846.121a9.988,9.988,0,0,0-9.978-9.976H676.124Z" transform="translate(-438.503 -46.924)" fill="#305d8a"/>
    <g id="Group_24" data-name="Group 24" transform="translate(347.57 801.066)" opacity="0.41">
      <path id="Path_204" data-name="Path 204" d="M1125.292,839.83H894.63l241.179,168.8V851.943c0-9.083-4.584-12.113-10.517-12.113Z" transform="translate(-894.63 -839.83)" fill="#fff"/>
    </g>
    <path id="Path_205" data-name="Path 205" d="M1038.078,1304.3H479.554c-6.69,0-9.759,5.7-7.841,12.113.638,2.137,1.945,7.1,2.5,9.256a14.012,14.012,0,0,0,13.893,10.682h541.449a14.012,14.012,0,0,0,13.893-10.682c.551-2.16,1.857-7.119,2.5-9.256,1.917-6.408-1.152-12.113-7.842-12.113Z" transform="translate(-349.551 -287.043)" fill="#fff"/>
    <path id="Path_206" data-name="Path 206" d="M1027.665,1336.652H486.215a16.209,16.209,0,0,1-15.963-12.29c-.53-2.074-1.84-7.057-2.473-9.173-1.225-4.088-.711-8.067,1.408-10.911a10.225,10.225,0,0,1,8.48-3.95h558.525a10.226,10.226,0,0,1,8.48,3.95c2.12,2.844,2.634,6.823,1.409,10.913-.632,2.114-1.943,7.1-2.473,9.171a16.207,16.207,0,0,1-15.962,12.29ZM477.678,1304.6a5.992,5.992,0,0,0-5.054,2.229c-1.3,1.75-1.573,4.352-.741,7.134.657,2.2,1.966,7.172,2.519,9.342a11.85,11.85,0,0,0,11.823,9.073h541.449a11.849,11.849,0,0,0,11.823-9.073c.553-2.17,1.861-7.139,2.519-9.34.833-2.784.564-5.386-.74-7.136a6,6,0,0,0-5.054-2.229H477.7Z" transform="translate(-347.675 -285.398)" fill="#305d8a"/>
    <g id="Group_25" data-name="Group 25" transform="translate(349.464 1018.963)" opacity="0.2">
      <path id="Path_207" data-name="Path 207" d="M993.546,1304.3H898.18v7.118a12.114,12.114,0,0,0,12.115,12.113h93.29a12.114,12.114,0,0,0,12.115-12.113V1304.3Z" transform="translate(-898.18 -1304.3)" fill="#9db6c9"/>
    </g>
    <path id="Path_208" data-name="Path 208" d="M995.5,1304.3H902.36a12.112,12.112,0,0,0,12.023,10.684H1003.4a12.113,12.113,0,0,0,12.023-10.684H995.5Z" transform="translate(-550.665 -284.235)" fill="#9db6c9"/>
    <path id="Path_209" data-name="Path 209" d="M1001.519,1315.326H912.5a14.246,14.246,0,0,1-14.145-12.57,2.138,2.138,0,0,1,2.122-2.387h113.06a2.138,2.138,0,0,1,2.121,2.387,14.245,14.245,0,0,1-14.145,12.57Zm-98.333-10.684a9.974,9.974,0,0,0,9.315,6.41h89.016a9.975,9.975,0,0,0,9.315-6.41H903.188Z" transform="translate(-548.792 -282.589)" fill="#305d8a"/>
    <g id="Group_26" data-name="Group 26" transform="translate(126.519 1040.148)" opacity="0.2">
      <path id="Path_210" data-name="Path 210" d="M480.37,1348.4a14.067,14.067,0,0,0,12.038,6.41h541.449a14.067,14.067,0,0,0,12.038-6.41H480.38Z" transform="translate(-480.37 -1348.4)" fill="#9db6c9"/>
    </g>
    <g id="Group_27" data-name="Group 27" transform="translate(225.506 812.21)" opacity="0.33">
      <path id="Path_211" data-name="Path 211" d="M1019.135,835.82H677.991a12.114,12.114,0,0,0-12.115,12.112v6.41a12.114,12.114,0,0,1,12.115-12.112h341.144a12.115,12.115,0,0,1,12.115,12.112v-6.41A12.114,12.114,0,0,0,1019.135,835.82Z" transform="translate(-665.876 -835.82)" fill="#9db6c9"/>
    </g>
    <g id="Group_28" data-name="Group 28" transform="translate(199.873 1015.552)" opacity="0.2">
      <rect id="Rectangle_654" data-name="Rectangle 654" width="408.112" height="4.274" fill="#9db6c9"/>
    </g>
    <circle id="Ellipse_99" data-name="Ellipse 99" cx="2.404" cy="2.404" r="2.404" transform="translate(406.888 800.675)" fill="#305d8a"/>
    <g id="Group_29" data-name="Group 29" transform="translate(599.415 793.843)" opacity="0.2">
      <path id="Path_212" data-name="Path 212" d="M1366.6,791.885a9.016,9.016,0,0,1,1.068-.108H1366.6Z" transform="translate(-1366.6 -791.777)" fill="#9db6c9"/>
    </g>
    <path id="Path_213" data-name="Path 213" d="M1730.014,1364.665H1719.33a2.137,2.137,0,1,1,0-4.274h10.683a2.137,2.137,0,1,1,0,4.274Zm-27.777,0h-17.093a2.137,2.137,0,1,1,0-4.274h17.093a2.137,2.137,0,1,1,0,4.274Z" transform="translate(-914.755 -314.646)" fill="#305d8a"/>
    <path id="Path_214" data-name="Path 214" d="M1074.451,1364.665H375.733a2.137,2.137,0,0,1,0-4.274h698.718a2.137,2.137,0,0,1,0,4.274Z" transform="translate(-304.052 -314.646)" fill="#305d8a"/>
    <path id="Path_215" data-name="Path 215" d="M311.972,1364.664a2.137,2.137,0,1,1-.021-4.274h.021a2.137,2.137,0,0,1,0,4.274Zm-17.114,0H277.764a2.137,2.137,0,0,1,0-4.274h17.094a2.137,2.137,0,0,1,0,4.274Zm-34.187,0H243.577a2.137,2.137,0,0,1,0-4.274h17.094a2.137,2.137,0,0,1,0,4.274Z" transform="translate(-242.416 -314.646)" fill="#305d8a"/>
    <line id="Line_1" data-name="Line 1" x2="11.686" y2="5.496" transform="translate(710.619 857.303)" fill="#fff"/>
    <path id="Path_216" data-name="Path 216" d="M1584.847,941.409a2.113,2.113,0,0,1-.909-.2l-11.657-5.5a2.137,2.137,0,0,1,1.824-3.864l11.656,5.5a2.137,2.137,0,0,1-.915,4.069Z" transform="translate(-862.542 -76.437)" fill="#305d8a"/>
    <line id="Line_2" data-name="Line 2" x1="0.64" y1="7.593" transform="translate(703.362 836.87)" fill="#fff"/>
    <path id="Path_217" data-name="Path 217" d="M1560.181,897.744a2.134,2.134,0,0,1-2.126-1.959l-.635-7.594a2.134,2.134,0,0,1,1.951-2.306,2.093,2.093,0,0,1,2.306,1.951l.634,7.594a2.134,2.134,0,0,1-1.951,2.306C1560.3,897.742,1560.239,897.744,1560.181,897.744Z" transform="translate(-856.178 -51.082)" fill="#305d8a"/>
    <line id="Line_3" data-name="Line 3" x1="9.925" y1="5.71" transform="translate(687.033 845.089)" fill="#fff"/>
    <path id="Path_218" data-name="Path 218" d="M1538.883,914.095a2.129,2.129,0,0,1-1.066-.286l-9.9-5.709a2.137,2.137,0,1,1,2.136-3.7l9.9,5.709a2.137,2.137,0,0,1-1.071,3.988Z" transform="translate(-841.925 -61.113)" fill="#305d8a"/>
    <line id="Line_4" data-name="Line 4" y1="0.72" x2="4.696" transform="translate(717.609 849.602)" fill="#fff"/>
    <path id="Path_219" data-name="Path 219" d="M1586.234,918.457a2.136,2.136,0,0,1-.321-4.248l4.674-.718a2.136,2.136,0,0,1,.647,4.224l-4.675.718A2.246,2.246,0,0,1,1586.234,918.457Z" transform="translate(-868.625 -65.955)" fill="#305d8a"/>
    <line id="Line_5" data-name="Line 5" y1="8.271" x2="7.204" transform="translate(722.305 911.549)" fill="#fff"/>
    <path id="Path_220" data-name="Path 220" d="M1595.032,1067.158a2.136,2.136,0,0,1-1.607-3.544l7.228-8.247a2.137,2.137,0,1,1,3.213,2.818l-7.228,8.246A2.131,2.131,0,0,1,1595.032,1067.158Z" transform="translate(-872.728 -145.243)" fill="#305d8a"/>
    <line id="Line_6" data-name="Line 6" x2="11.739" y2="8.965" transform="translate(758.643 904.044)" fill="#fff"/>
    <path id="Path_221" data-name="Path 221" d="M1674.863,1051a2.128,2.128,0,0,1-1.3-.44l-11.751-9a2.136,2.136,0,0,1,2.6-3.393l11.752,9a2.136,2.136,0,0,1-1.3,3.833Z" transform="translate(-904.48 -135.886)" fill="#305d8a"/>
    <line id="Line_7" data-name="Line 7" x2="1.227" y2="3.575" transform="translate(755.281 914.115)" fill="#fff"/>
    <path id="Path_222" data-name="Path 222" d="M1658.065,1067.26a2.138,2.138,0,0,1-2.02-1.441l-1.22-3.552a2.136,2.136,0,1,1,4.039-1.39l1.221,3.552a2.134,2.134,0,0,1-1.325,2.714A2.109,2.109,0,0,1,1658.065,1067.26Z" transform="translate(-901.556 -147.474)" fill="#305d8a"/>
    <line id="Line_8" data-name="Line 8" x1="2.988" y1="10.779" transform="translate(741.888 885.953)" fill="#fff"/>
    <path id="Path_223" data-name="Path 223" d="M1634.726,1012.374a2.139,2.139,0,0,1-2.058-1.565l-2.983-10.744a2.137,2.137,0,1,1,4.118-1.143l2.984,10.744a2.138,2.138,0,0,1-1.487,2.631A2.187,2.187,0,0,1,1634.726,1012.374Z" transform="translate(-889.849 -113.516)" fill="#305d8a"/>
    <line id="Line_9" data-name="Line 9" y1="4.269" x2="2.134" transform="translate(757.576 884.163)" fill="#fff"/>
    <path id="Path_224" data-name="Path 224" d="M1661.134,1000.529a2.136,2.136,0,0,1-1.909-3.093l2.137-4.273a2.137,2.137,0,1,1,3.823,1.911l-2.137,4.273A2.136,2.136,0,0,1,1661.134,1000.529Z" transform="translate(-903.558 -109.962)" fill="#305d8a"/>
    <line id="Line_10" data-name="Line 10" y1="2.935" x2="11.739" transform="translate(766.114 893.148)" fill="#fff"/>
    <path id="Path_225" data-name="Path 225" d="M1677.134,1019.224a2.137,2.137,0,0,1-.511-4.211l11.751-2.909a2.137,2.137,0,0,1,1.027,4.148l-11.752,2.909A2.2,2.2,0,0,1,1677.134,1019.224Z" transform="translate(-911.02 -121.019)" fill="#305d8a"/>
    <line id="Line_11" data-name="Line 11" x2="3.895" y2="0.32" transform="translate(770.383 900.566)" fill="#fff"/>
    <path id="Path_226" data-name="Path 226" d="M1689.007,1032.765a1.82,1.82,0,0,1-.186-.009l-3.917-.336a2.134,2.134,0,0,1-1.945-2.312,2.1,2.1,0,0,1,2.312-1.945l3.917.336a2.137,2.137,0,0,1-.182,4.266Z" transform="translate(-914.729 -129.76)" fill="#305d8a"/>
    <line id="Line_12" data-name="Line 12" y1="10.683" x2="2.134" transform="translate(669.958 844.624)" fill="#fff"/>
    <path id="Path_227" data-name="Path 227" d="M1496.93,918.855a2.067,2.067,0,0,1-.421-.042,2.137,2.137,0,0,1-1.676-2.514l2.137-10.683a2.137,2.137,0,0,1,4.191.839l-2.137,10.684a2.135,2.135,0,0,1-2.093,1.717Z" transform="translate(-826.972 -61.361)" fill="#305d8a"/>
    <line id="Line_13" data-name="Line 13" x1="5.176" y1="3.933" transform="translate(655.711 849.964)" fill="#fff"/>
    <path id="Path_228" data-name="Path 228" d="M1475.4,923.025a2.12,2.12,0,0,1-1.29-.436l-5.181-3.935a2.135,2.135,0,1,1,2.583-3.4l5.182,3.935a2.136,2.136,0,0,1-1.293,3.837Z" transform="translate(-814.518 -66.945)" fill="#305d8a"/>
    <line id="Line_14" data-name="Line 14" x1="12.913" y2="3.202" transform="translate(647.974 890.463)" fill="#fff"/>
    <path id="Path_229" data-name="Path 229" d="M1455.734,1013.465a2.137,2.137,0,0,1-.514-4.211l12.919-3.206a2.137,2.137,0,1,1,1.032,4.149l-12.919,3.205A2.209,2.209,0,0,1,1455.734,1013.465Z" transform="translate(-807.76 -117.672)" fill="#305d8a"/>
    <line id="Line_15" data-name="Line 15" x1="9.071" y1="3.015" transform="translate(660.887 874.794)" fill="#fff"/>
    <path id="Path_230" data-name="Path 230" d="M1489.009,977.929a2.15,2.15,0,0,1-.674-.109l-9.065-3.017a2.137,2.137,0,0,1,1.348-4.057l9.064,3.018a2.137,2.137,0,0,1-.673,4.165Z" transform="translate(-819.051 -97.968)" fill="#305d8a"/>
    <line id="Line_16" data-name="Line 16" y1="9.055" x2="1.708" transform="translate(678.229 857.028)" fill="#fff"/>
    <path id="Path_231" data-name="Path 231" d="M1512.43,944.966a2.09,2.09,0,0,1-.392-.036,2.138,2.138,0,0,1-1.711-2.491l1.682-9.056a2.137,2.137,0,1,1,4.2.78l-1.682,9.056A2.138,2.138,0,0,1,1512.43,944.966Z" transform="translate(-834.201 -76.712)" fill="#305d8a"/>
    <line id="Line_17" data-name="Line 17" y1="10.48" x2="6.723" transform="translate(695.251 856.917)" fill="#fff"/>
    <path id="Path_232" data-name="Path 232" d="M1544.334,946.393a2.137,2.137,0,0,1-1.793-3.295l6.767-10.481a2.136,2.136,0,0,1,3.589,2.316l-6.767,10.482A2.131,2.131,0,0,1,1544.334,946.393Z" transform="translate(-849.083 -76.825)" fill="#305d8a"/>
    <line id="Line_18" data-name="Line 18" x2="12.113" y2="1.505" transform="translate(700.587 874.916)" fill="#fff"/>
    <path id="Path_233" data-name="Path 233" d="M1566.447,976.417a1.9,1.9,0,0,1-.267-.017l-12.109-1.508a2.137,2.137,0,0,1,.53-4.241l12.109,1.509a2.137,2.137,0,0,1-.263,4.258Z" transform="translate(-853.747 -97.843)" fill="#305d8a"/>
    <line id="Line_19" data-name="Line 19" x1="11.473" y1="3.042" transform="translate(637.888 879.822)" fill="#fff"/>
    <path id="Path_234" data-name="Path 234" d="M1448.319,989.3a2.173,2.173,0,0,1-.55-.07l-11.454-3.04a2.137,2.137,0,1,1,1.1-4.131l11.454,3.041a2.136,2.136,0,0,1-.547,4.2Z" transform="translate(-798.958 -104.289)" fill="#305d8a"/>
    <line id="Line_20" data-name="Line 20" y1="0.678" x2="4.376" transform="translate(643.598 869.976)" fill="#fff"/>
    <path id="Path_235" data-name="Path 235" d="M1447.534,964.306a2.137,2.137,0,0,1-.325-4.249l4.342-.674a2.137,2.137,0,0,1,.655,4.223l-4.342.675A2.3,2.3,0,0,1,1447.534,964.306Z" transform="translate(-803.936 -91.498)" fill="#305d8a"/>
    <line id="Line_21" data-name="Line 21" y1="6.067" x2="2.134" transform="translate(684.899 875.794)" fill="#fff"/>
    <path id="Path_236" data-name="Path 236" d="M1524.932,983.8a2.136,2.136,0,0,1-2.016-2.846l2.136-6.066a2.137,2.137,0,1,1,4.031,1.419l-2.137,6.066A2.136,2.136,0,0,1,1524.932,983.8Z" transform="translate(-840.032 -99.794)" fill="#305d8a"/>
    <line id="Line_22" data-name="Line 22" x1="5.656" y1="5.496" transform="translate(651.495 857.303)" fill="#fff"/>
    <path id="Path_237" data-name="Path 237" d="M1468,941.412a2.13,2.13,0,0,1-1.492-.607l-5.64-5.5a2.137,2.137,0,0,1,2.984-3.058l5.64,5.5a2.137,2.137,0,0,1-1.492,3.666Z" transform="translate(-810.851 -76.44)" fill="#305d8a"/>
    <line id="Line_23" data-name="Line 23" x2="3.575" y2="1.441" transform="translate(671.025 886.753)" fill="#fff"/>
    <path id="Path_238" data-name="Path 238" d="M1502.52,1003.019a2.144,2.144,0,0,1-.8-.152l-3.56-1.425a2.138,2.138,0,1,1,1.589-3.969l3.56,1.425a2.137,2.137,0,0,1-.794,4.121Z" transform="translate(-827.919 -112.693)" fill="#305d8a"/>
    <line id="Line_24" data-name="Line 24" x1="7.897" y1="10.299" transform="translate(643.598 920.875)" fill="#fff"/>
    <path id="Path_239" data-name="Path 239" d="M1455.457,1090.638a2.132,2.132,0,0,1-1.7-.843l-7.865-10.327a2.137,2.137,0,1,1,3.4-2.586l7.864,10.326a2.136,2.136,0,0,1-1.7,3.43Z" transform="translate(-803.962 -157.379)" fill="#305d8a"/>
    <line id="Line_25" data-name="Line 25" x1="3.735" y1="3.308" transform="translate(636.288 925.85)" fill="#fff"/>
    <path id="Path_240" data-name="Path 240" d="M1437.539,1093.343a2.131,2.131,0,0,1-1.419-.538l-3.768-3.344a2.137,2.137,0,0,1,2.837-3.2l3.769,3.343a2.137,2.137,0,0,1-1.419,3.735Z" transform="translate(-797.516 -162.099)" fill="#305d8a"/>
    <line id="Line_26" data-name="Line 26" x1="9.605" y2="3.735" transform="translate(633.993 937.029)" fill="#fff"/>
    <path id="Path_241" data-name="Path 241" d="M1429.532,1119.1a2.137,2.137,0,0,1-.772-4.13l9.644-3.74a2.137,2.137,0,0,1,1.545,3.985l-9.644,3.74A2.14,2.14,0,0,1,1429.532,1119.1Z" transform="translate(-795.539 -176.263)" fill="#305d8a"/>
    <line id="Line_27" data-name="Line 27" x1="3.575" y2="4.536" transform="translate(640.023 943.999)" fill="#fff"/>
    <path id="Path_242" data-name="Path 242" d="M1440.835,1135.81a2.113,2.113,0,0,1-1.325-.464,2.135,2.135,0,0,1-.346-3l3.59-4.524a2.135,2.135,0,1,1,3.346,2.654l-3.589,4.525A2.135,2.135,0,0,1,1440.835,1135.81Z" transform="translate(-800.812 -185.217)" fill="#305d8a"/>
    <line id="Line_28" data-name="Line 28" x1="2.134" y2="10.352" transform="translate(649.361 940.345)" fill="#fff"/>
    <path id="Path_243" data-name="Path 243" d="M1458.33,1134.74a2.186,2.186,0,0,1-.434-.044,2.138,2.138,0,0,1-1.661-2.525l2.136-10.327a2.137,2.137,0,0,1,4.186.864l-2.137,10.327a2.138,2.138,0,0,1-2.091,1.7Z" transform="translate(-808.969 -181.986)" fill="#305d8a"/>
    <line id="Line_29" data-name="Line 29" y1="12.54" x2="4.269" transform="translate(723.745 884.34)" fill="#fff"/>
    <path id="Path_244" data-name="Path 244" d="M1597.732,1010.817a2.094,2.094,0,0,1-.691-.115,2.136,2.136,0,0,1-1.332-2.712l4.274-12.524a2.137,2.137,0,0,1,4.045,1.381l-4.274,12.524A2.138,2.138,0,0,1,1597.732,1010.817Z" transform="translate(-873.986 -111.808)" fill="#305d8a"/>
    <line id="Line_30" data-name="Line 30" y1="5.133" x2="0.694" transform="translate(715.795 882.175)" fill="#fff"/>
    <path id="Path_245" data-name="Path 245" d="M1582.83,997.067a2.461,2.461,0,0,1-.271-.017,2.137,2.137,0,0,1-1.851-2.39l.653-5.15a2.137,2.137,0,1,1,4.24.538l-.653,5.15A2.14,2.14,0,0,1,1582.83,997.067Z" transform="translate(-867.035 -107.621)" fill="#305d8a"/>
    <line id="Line_31" data-name="Line 31" x1="10.779" y1="7.524" transform="translate(667.45 893.943)" fill="#fff"/>
    <path id="Path_246" data-name="Path 246" d="M1503.01,1026.51a2.128,2.128,0,0,1-1.219-.381l-10.781-7.5a2.137,2.137,0,0,1,2.441-3.51l10.781,7.5a2.137,2.137,0,0,1-1.222,3.891Z" transform="translate(-824.781 -122.925)" fill="#305d8a"/>
    <line id="Line_32" data-name="Line 32" y1="6.409" x2="2.134" transform="translate(695.571 880.432)" fill="#fff"/>
    <path id="Path_247" data-name="Path 247" d="M1544.933,994.661a2.139,2.139,0,0,1-2.026-2.813l2.137-6.41a2.136,2.136,0,1,1,4.052,1.352l-2.137,6.41A2.135,2.135,0,0,1,1544.933,994.661Z" transform="translate(-849.362 -105.682)" fill="#305d8a"/>
    <line id="Line_33" data-name="Line 33" x2="3.255" y2="3.789" transform="translate(691.996 894.271)" fill="#fff"/>
    <path id="Path_248" data-name="Path 248" d="M1541.5,1022.787a2.134,2.134,0,0,1-1.616-.738l-3.241-3.75a2.137,2.137,0,1,1,3.234-2.8l3.24,3.75a2.136,2.136,0,0,1-1.617,3.535Z" transform="translate(-846.25 -122.609)" fill="#305d8a"/>
    <line id="Line_34" data-name="Line 34" x1="1.387" y2="11.099" transform="translate(703.362 892.431)" fill="#fff"/>
    <path id="Path_249" data-name="Path 249" d="M1559.53,1027.376a2.5,2.5,0,0,1-.269-.016,2.137,2.137,0,0,1-1.853-2.387l1.391-11.088a2.137,2.137,0,0,1,4.24.534l-1.391,11.088A2.138,2.138,0,0,1,1559.53,1027.376Z" transform="translate(-856.169 -121.728)" fill="#305d8a"/>
    <line id="Line_35" data-name="Line 35" y1="4.215" x2="8.538" transform="translate(737.246 902.26)" fill="#fff"/>
    <path id="Path_250" data-name="Path 250" d="M1623.03,1041.273a2.137,2.137,0,0,1-.95-4.052l8.547-4.224a2.137,2.137,0,0,1,1.9,3.831l-8.547,4.223A2.132,2.132,0,0,1,1623.03,1041.273Z" transform="translate(-885.784 -132.685)" fill="#305d8a"/>
    <line id="Line_36" data-name="Line 36" x2="6.403" transform="translate(742.582 911.205)" fill="#fff"/>
    <path id="Path_251" data-name="Path 251" d="M1639.43,1056.365h-6.41a2.137,2.137,0,1,1,0-4.274h6.41a2.137,2.137,0,0,1,0,4.274Z" transform="translate(-890.445 -143.056)" fill="#305d8a"/>
    <line id="Line_37" data-name="Line 37" x2="8.538" y2="6.777" transform="translate(653.95 918.557)" fill="#fff"/>
    <path id="Path_252" data-name="Path 252" d="M1475.464,1081.151a2.133,2.133,0,0,1-1.325-.461l-8.547-6.765a2.138,2.138,0,0,1,2.655-3.351l8.547,6.765a2.136,2.136,0,0,1-1.33,3.811Z" transform="translate(-812.976 -153.73)" fill="#305d8a"/>
    <line id="Line_38" data-name="Line 38" x1="3.042" y1="0.534" transform="translate(657.845 913.82)" fill="#fff"/>
    <path id="Path_253" data-name="Path 253" d="M1477.268,1062.882a2.23,2.23,0,0,1-.385-.034l-3.044-.553a2.138,2.138,0,0,1,.764-4.207l3.044.553a2.137,2.137,0,0,1-.379,4.241Z" transform="translate(-816.381 -146.427)" fill="#305d8a"/>
    <line id="Line_39" data-name="Line 39" x2="8.057" y2="6.35" transform="translate(671.025 908.006)" fill="#fff"/>
    <path id="Path_254" data-name="Path 254" d="M1506.989,1056.826a2.126,2.126,0,0,1-1.319-.456l-8.061-6.335a2.137,2.137,0,0,1,2.642-3.359l8.06,6.335a2.136,2.136,0,0,1-1.322,3.816Z" transform="translate(-827.906 -140.369)" fill="#305d8a"/>
    <line id="Line_40" data-name="Line 40" x2="3.308" y2="5.336" transform="translate(687.033 909.518)" fill="#fff"/>
    <path id="Path_255" data-name="Path 255" d="M1532.245,1058.986a2.14,2.14,0,0,1-1.822-1.014l-3.3-5.352a2.138,2.138,0,0,1,3.64-2.245l3.3,5.352a2.136,2.136,0,0,1-1.818,3.259Z" transform="translate(-841.903 -142.03)" fill="#305d8a"/>
    <line id="Line_41" data-name="Line 41" y1="6.777" x2="6.19" transform="translate(725.933 929.767)" fill="#fff"/>
    <path id="Path_256" data-name="Path 256" d="M1601.832,1106.45a2.137,2.137,0,0,1-1.576-3.581l6.206-6.767a2.137,2.137,0,0,1,3.15,2.888l-6.206,6.767A2.131,2.131,0,0,1,1601.832,1106.45Z" transform="translate(-875.899 -167.832)" fill="#305d8a"/>
    <line id="Line_42" data-name="Line 42" y1="1.334" x2="4.269" transform="translate(737.246 937.712)" fill="#fff"/>
    <path id="Path_257" data-name="Path 257" d="M1623.033,1117.695a2.137,2.137,0,0,1-.636-4.176l4.273-1.336a2.136,2.136,0,1,1,1.273,4.077l-4.274,1.336A2.093,2.093,0,0,1,1623.033,1117.695Z" transform="translate(-885.787 -176.579)" fill="#305d8a"/>
    <line id="Line_43" data-name="Line 43" y1="1.654" x2="12.486" transform="translate(743.382 926.009)" fill="#fff"/>
    <path id="Path_258" data-name="Path 258" d="M1634.534,1091.706a2.137,2.137,0,0,1-.282-4.254l12.5-1.672a2.137,2.137,0,0,1,.567,4.236l-12.5,1.671A2.16,2.16,0,0,1,1634.534,1091.706Z" transform="translate(-891.152 -161.957)" fill="#305d8a"/>
    <line id="Line_44" data-name="Line 44" y1="1.227" x2="2.935" transform="translate(751.44 934.927)" fill="#fff"/>
    <path id="Path_259" data-name="Path 259" d="M1649.632,1111.274a2.137,2.137,0,0,1-.847-4.1l2.89-1.248a2.137,2.137,0,0,1,1.695,3.923l-2.89,1.248a2.122,2.122,0,0,1-.847.175Z" transform="translate(-898.193 -173.046)" fill="#305d8a"/>
    <line id="Line_45" data-name="Line 45" x1="8.271" y2="6.777" transform="translate(657.152 949.308)" fill="#fff"/>
    <path id="Path_260" data-name="Path 260" d="M1472.931,1150.55a2.137,2.137,0,0,1-1.354-3.791l8.287-6.767a2.137,2.137,0,1,1,2.7,3.309l-8.287,6.767a2.139,2.139,0,0,1-1.351.483Z" transform="translate(-815.779 -192.416)" fill="#305d8a"/>
    <line id="Line_46" data-name="Line 46" x2="8.271" y2="1.441" transform="translate(669.958 941.252)" fill="#fff"/>
    <path id="Path_261" data-name="Path 261" d="M1505.186,1125.822a2.216,2.216,0,0,1-.364-.031l-8.288-1.424a2.136,2.136,0,1,1,.722-4.211l8.288,1.423a2.136,2.136,0,0,1-.358,4.242Z" transform="translate(-826.957 -181.066)" fill="#305d8a"/>
    <line id="Line_47" data-name="Line 47" y1="5.336" x2="8.111" transform="translate(675.027 949.458)" fill="#fff"/>
    <path id="Path_262" data-name="Path 262" d="M1506.43,1149.094a2.137,2.137,0,0,1-1.181-3.919l8.076-5.342a2.137,2.137,0,0,1,2.358,3.565l-8.076,5.342a2.131,2.131,0,0,1-1.177.355Z" transform="translate(-831.403 -192.248)" fill="#305d8a"/>
    <line id="Line_48" data-name="Line 48" x1="3.362" y2="8.538" transform="translate(695.251 944.828)" fill="#fff"/>
    <path id="Path_263" data-name="Path 263" d="M1544.332,1142.6a2.137,2.137,0,0,1-1.987-2.923l3.383-8.547a2.136,2.136,0,0,1,3.973,1.573l-3.383,8.547A2.136,2.136,0,0,1,1544.332,1142.6Z" transform="translate(-849.081 -187.176)" fill="#305d8a"/>
    <line id="Line_49" data-name="Line 49" x2="1.868" y2="4.109" transform="translate(706.617 951.803)" fill="#fff"/>
    <path id="Path_264" data-name="Path 264" d="M1567.488,1152.885a2.136,2.136,0,0,1-1.945-1.245l-1.878-4.1a2.137,2.137,0,0,1,3.886-1.782l1.878,4.1a2.135,2.135,0,0,1-1.941,3.028Z" transform="translate(-859.003 -194.925)" fill="#305d8a"/>
    <line id="Line_50" data-name="Line 50" x1="10.939" y1="3.308" transform="translate(675.027 925.85)" fill="#fff"/>
    <path id="Path_265" data-name="Path 265" d="M1517.382,1093.34a2.123,2.123,0,0,1-.626-.094l-10.926-3.344a2.136,2.136,0,1,1,1.252-4.085l10.926,3.343a2.137,2.137,0,0,1-.626,4.18Z" transform="translate(-831.416 -162.097)" fill="#305d8a"/>
    <line id="Line_51" data-name="Line 51" y1="4.055" x2="1.761" transform="translate(712.7 934.647)" fill="#fff"/>
    <path id="Path_266" data-name="Path 266" d="M1577.033,1114.124a2.135,2.135,0,0,1-1.955-3l1.779-4.053a2.138,2.138,0,0,1,3.915,1.719l-1.78,4.053A2.139,2.139,0,0,1,1577.033,1114.124Z" transform="translate(-864.334 -173.351)" fill="#305d8a"/>
    <line id="Line_52" data-name="Line 52" x2="6.723" y2="1.441" transform="translate(725.88 949.107)" fill="#fff"/>
    <path id="Path_267" data-name="Path 267" d="M1608.415,1143.519a2.132,2.132,0,0,1-.442-.045l-6.766-1.425a2.137,2.137,0,1,1,.88-4.182l6.767,1.425a2.137,2.137,0,0,1-.439,4.227Z" transform="translate(-875.812 -190.917)" fill="#305d8a"/>
    <line id="Line_53" data-name="Line 53" x2="126.091" transform="translate(642.157 984.064)" fill="#fff"/>
    <path id="Path_268" data-name="Path 268" d="M1570.946,1220.464H1444.882a2.137,2.137,0,1,1,0-4.274h126.064a2.137,2.137,0,0,1,0,4.274Z" transform="translate(-802.698 -234.388)" fill="#305d8a"/>
    <path id="Path_269" data-name="Path 269" d="M539.5,1241.609a29.381,29.381,0,0,0-29.2-29.376v-3.923a12.114,12.114,0,0,0-12.115-12.112H449.763a12.114,12.114,0,0,0-12.115,12.112v65.516a12.114,12.114,0,0,0,12.115,12.113h48.418a12.114,12.114,0,0,0,12.115-12.113v-2.842a29.38,29.38,0,0,0,29.2-29.375Zm-29.2,16.555v-33.111a16.556,16.556,0,0,1,0,33.111Z" transform="translate(-333.926 -234.068)" fill="#eae8e1"/>
    <path id="Path_270" data-name="Path 270" d="M496.314,1286.226H447.9a14.267,14.267,0,0,1-14.251-14.25V1206.46a14.266,14.266,0,0,1,14.251-14.249h48.418a14.266,14.266,0,0,1,14.251,14.249v1.87a31.513,31.513,0,0,1,0,62.857v.789A14.267,14.267,0,0,1,496.314,1286.226ZM447.9,1196.485a9.989,9.989,0,0,0-9.978,9.976v65.516a9.989,9.989,0,0,0,9.978,9.976h48.418a9.988,9.988,0,0,0,9.978-9.976v-2.842a2.138,2.138,0,0,1,2.124-2.136,27.239,27.239,0,0,0,0-54.478,2.137,2.137,0,0,1-2.124-2.137v-3.923a9.989,9.989,0,0,0-9.978-9.976Zm60.532,61.967a2.136,2.136,0,0,1-2.136-2.136V1223.2a2.132,2.132,0,0,1,.634-1.519,2.041,2.041,0,0,1,1.525-.617,18.693,18.693,0,0,1,0,37.383Zm2.137-32.924v28.465a14.419,14.419,0,0,0,0-28.465Z" transform="translate(-332.059 -232.416)" fill="#305d8a"/>
    <g id="Group_30" data-name="Group 30" transform="translate(273.46 830.352)" opacity="0.2">
      <path id="Path_271" data-name="Path 271" d="M549.521,1212.284v-3.923a12.114,12.114,0,0,0-12.115-12.112H521.744v89.741h15.662a12.114,12.114,0,0,0,12.115-12.113v-2.842a29.376,29.376,0,0,0,0-58.751Zm0,45.931V1225.1a16.556,16.556,0,0,1,0,33.111Z" transform="translate(-521.744 -1196.249)" fill="#9db6c9"/>
    </g>
    <line id="Line_54" data-name="Line 54" x2="47.005" transform="translate(241.409 848.712)" fill="#fff"/>
    <path id="Path_272" data-name="Path 272" d="M506.816,1212.465H459.809a2.137,2.137,0,0,1,0-4.274h47.007a2.137,2.137,0,1,1,0,4.274Z" transform="translate(-218.402 -361.736)" fill="#305d8a"/>
  </g>
</svg>
