<svg xmlns="http://www.w3.org/2000/svg" width="495.054" height="141" viewBox="0 0 495.054 141">
  <g id="Leopard" transform="translate(0)">
    <path id="Path_156" data-name="Path 156" d="M366.57-496.366c1.161.519,3.675,3.114,4.874,4.99.542.878.928,1,5.029,1.278,9.246.679,13.926,3.034,16.286,8.144a17.794,17.794,0,0,1,1.083,2.835c0,.639,2.553,2.715,7.969,6.428,6.267,4.352,7.5,5.589,7.5,7.506,0,1.637-1.9,7.705-3.288,10.58a48.885,48.885,0,0,1-3.172,4.99c-1.277,1.757-3.249,4.511-4.371,6.148-2.089,2.954-4.6,5.23-5.764,5.23-.928,0-4.371-1.757-9.246-4.671-5.068-3.034-5.338-3.034-8.24-.24a25.22,25.22,0,0,0-7.621,19.163c.232,3.753,1.161,5.909,4.41,9.941,5.106,6.428,7.157,10.54,8.124,16.209,1.122,6.747,2.9,10.38,6.5,13.015,4.41,3.274,17.447,4.871,61.934,7.466,11.335.679,16.17,1.357,20.387,2.835a38.8,38.8,0,0,0,11.528,1.757c4.255.04,8.433,1,10.019,2.316,2.205,1.836,3.714,5.07,4.526,9.741.232,1.357.155,1.517-.619,1.517-.735,0-.812.16-.58,1.158l.232,1.118-24.294.279c-13.346.12-30.87.359-38.917.479l-14.584.279v-2.515H345.487v1.677l-10.754-.24c-5.88-.12-34.661-.319-63.907-.439-60.425-.24-75.937-.479-74.816-1.158.542-.319-6.112-.479-26.344-.639-25.377-.2-27.2-.24-28.743-.958-2.514-1.118-3.366-3.274-2.205-5.589l.58-1.158-1.238.24c-.7.12-3.366.6-5.919,1.038-13,2.316-21.586,3.034-36.363,3.034-13.656-.04-16.75-.319-26.692-2.435-16.247-3.513-31.3-10.181-41.392-18.325-3.752-2.994-8.9-8.623-13.385-14.572C0-416.838-3.485-432.808,3.788-446.342a28.594,28.594,0,0,1,18.1-14.333c4.487-1.238,14.468-1.238,20.309.04a69.784,69.784,0,0,1,31.915,16.329c7.5,6.787,12.572,14.732,12.572,19.8a5.144,5.144,0,0,1-6.073,5.27c-3.482-.479-5.454-2-15.861-11.977-8.085-7.785-13-11.219-19.3-13.374-6.963-2.4-13.578-2.475-19.381-.24-4.371,1.717-8.627,5.509-10.251,9.182-1.315,2.954-1.238,7.985.232,12.656,4.294,13.814,16.634,27.507,32.727,36.37a93.928,93.928,0,0,0,26.112,8.943c5.532,1,18.414.958,23.211,0a57.77,57.77,0,0,0,29.129-15.49c1.586-1.637,4.913-5.549,7.389-8.743,9.981-12.9,20.077-21.6,32.727-28.186,7.814-4.032,10.948-5.07,16.441-5.27,7.157-.279,12.3,1.078,20.58,5.35,4.913,2.555,7.93,3.473,15.01,4.551a201.848,201.848,0,0,0,33.462,1.876c12.766-.2,16.75-.679,23.52-2.715,6.383-1.916,10.948-4.471,17.485-9.7,3.211-2.555,8.743-6.827,12.379-9.5a180.162,180.162,0,0,0,24.565-21.279c5.841-6.188,12.534-11.1,21.431-15.81,4.6-2.435,4.836-2.635,5.261-4.152,1.2-4.032,4.023-8.424,6.228-9.622C364.984-497.045,365.1-497.045,366.57-496.366Z" transform="translate(-0.102 496.875)" fill="#a7cfe8"/>
  </g>
</svg>
